<?xml version="1.0"?>
<svg xmlns="http://www.w3.org/2000/svg" xmlns:xlink="http://www.w3.org/1999/xlink" xmlns:svgjs="http://svgjs.com/svgjs" version="1.1" width="512" height="512" x="0" y="0" viewBox="0 0 16.699 16.699" style="enable-background:new 0 0 512 512" xml:space="preserve"><g>
<g xmlns="http://www.w3.org/2000/svg">
	<g>
		<path style="" d="M12.954,6.689c-0.229,0-0.385,0.021-0.467,0.044v1.472c0.097,0.022,0.216,0.029,0.378,0.029    c0.599,0,0.968-0.303,0.968-0.813C13.833,6.963,13.516,6.689,12.954,6.689z" fill="#ffffff" data-original="#030104"/>
		<path style="" d="M3.556,6.689c-0.229,0-0.385,0.021-0.467,0.044v1.472c0.097,0.022,0.215,0.029,0.377,0.029    c0.599,0,0.969-0.303,0.969-0.813C4.435,6.963,4.117,6.689,3.556,6.689z" fill="#ffffff" data-original="#030104"/>
		<path style="" d="M0,4.599V12.1h16.699V4.599H0z M5.093,8.575C4.709,8.938,4.139,9.1,3.474,9.1    c-0.148,0-0.281-0.007-0.385-0.021v1.782H1.973V5.942c0.348-0.059,0.835-0.104,1.523-0.104c0.695,0,1.191,0.133,1.523,0.399    c0.319,0.251,0.534,0.666,0.534,1.154C5.553,7.88,5.39,8.294,5.093,8.575z M10.385,10.861H9.26V8.775H7.404v2.086H6.272V5.876    h1.132v1.916H9.26V5.876h1.125V10.861z M14.492,8.575C14.108,8.938,13.539,9.1,12.874,9.1c-0.148,0-0.281-0.007-0.386-0.021v1.782    h-1.116V5.942c0.348-0.059,0.836-0.104,1.523-0.104c0.695,0,1.191,0.133,1.524,0.399c0.317,0.251,0.532,0.666,0.532,1.154    C14.952,7.88,14.788,8.294,14.492,8.575z" fill="#ffffff" data-original="#030104"/>
	</g>
</g>
<g xmlns="http://www.w3.org/2000/svg">
</g>
<g xmlns="http://www.w3.org/2000/svg">
</g>
<g xmlns="http://www.w3.org/2000/svg">
</g>
<g xmlns="http://www.w3.org/2000/svg">
</g>
<g xmlns="http://www.w3.org/2000/svg">
</g>
<g xmlns="http://www.w3.org/2000/svg">
</g>
<g xmlns="http://www.w3.org/2000/svg">
</g>
<g xmlns="http://www.w3.org/2000/svg">
</g>
<g xmlns="http://www.w3.org/2000/svg">
</g>
<g xmlns="http://www.w3.org/2000/svg">
</g>
<g xmlns="http://www.w3.org/2000/svg">
</g>
<g xmlns="http://www.w3.org/2000/svg">
</g>
<g xmlns="http://www.w3.org/2000/svg">
</g>
<g xmlns="http://www.w3.org/2000/svg">
</g>
<g xmlns="http://www.w3.org/2000/svg">
</g>
</g></svg>
